<svg width="117" height="90" viewBox="0 0 117 90" fill="none" xmlns="http://www.w3.org/2000/svg">
<path d="M72.8735 37.4536C73.6649 36.3427 74.5287 35.2721 75.2273 34.1094C76.0505 32.7337 76.7317 31.2775 77.4767 29.8586C77.6303 29.568 77.7434 29.2226 77.9782 29.024C78.1956 28.8398 78.6043 28.6816 78.8362 28.765C79.0594 28.8427 79.3087 29.2514 79.2942 29.5018C79.2652 30.0112 79.0478 30.5062 78.9406 31.0127C78.4014 33.5914 77.8709 36.1758 77.3462 38.7573C77.3289 38.835 77.4013 38.93 77.5637 39.3847C77.9202 38.9098 78.155 38.5702 78.4188 38.2537C80.645 35.5887 82.5466 32.7366 83.9032 29.5363C84.3467 28.4887 84.9381 27.4901 85.5642 26.5288C85.7642 26.2238 86.283 26.1202 86.6599 25.9245C86.7903 26.3504 87.0947 26.8022 87.0251 27.1936C86.5903 29.6601 85.9758 32.0977 85.625 34.5728C85.4714 35.6549 85.799 36.8003 86.0686 37.9285C87.5585 36.2679 88.6107 34.449 89.3209 32.4488C89.976 30.6069 90.5181 28.7247 91.2167 26.8972C91.4544 26.2756 91.6225 25.1474 92.6574 25.5273C93.6516 25.8899 92.9994 26.8051 92.8864 27.5016C92.4951 29.8385 92.0544 32.1725 91.7674 34.5238C91.6863 35.18 92.0718 35.8909 92.2428 36.5758C92.8313 36.2592 93.5125 36.0434 93.9879 35.6088C94.9851 34.6965 96.0228 33.7698 96.7562 32.6647C97.2229 31.9596 97.2374 30.9379 97.3388 30.0457C97.5447 28.1606 98.0287 26.3734 99.3071 24.9114C100.087 24.0221 100.954 23.176 102.328 23.2508C103.177 23.2969 103.606 23.7027 103.635 24.5344C103.696 26.3274 103.02 27.8585 101.861 29.191C100.951 30.2357 99.9303 31.1911 99.0375 32.2445C98.7534 32.5812 98.5302 33.1395 98.594 33.5482C98.7505 34.567 98.9795 35.6059 99.3824 36.5528C100.029 38.0695 101.452 38.5415 102.815 37.5889C105.009 36.0578 107.163 34.449 109.174 32.6963C110.688 31.3782 111.928 29.7637 113.34 28.3304C113.595 28.0714 114.096 28.0513 114.485 27.9247C114.479 28.3304 114.641 28.883 114.436 29.119C112.928 30.8199 111.453 32.5754 109.754 34.0864C107.911 35.7268 105.858 37.1514 103.858 38.6163C101.725 40.1819 98.8983 39.5747 97.7939 36.5701C97.5707 35.9599 97.4171 35.3268 97.1939 34.5699C96.6866 35.0562 96.2286 35.5426 95.7242 35.9743C95.043 36.5528 94.3589 37.1313 93.6168 37.632C92.3675 38.4753 91.1848 38.104 90.692 36.6967C90.4398 35.9743 90.3616 35.1944 90.176 34.3281C89.6456 35.2606 89.1644 36.1326 88.6513 36.9902C88.3325 37.5255 87.9672 38.0321 87.6107 38.5443C87.1324 39.2322 86.4918 39.6207 85.6453 39.307C84.8105 38.9962 84.2742 38.412 84.28 37.4594C84.2945 35.7038 84.2858 33.9482 84.2858 32.2128C84.1931 32.3538 84.0626 32.5639 83.9206 32.7683C82.3814 34.9757 80.8422 37.1802 79.3 39.3847C79.2449 39.4653 79.1696 39.5315 79.0971 39.6034C78.4536 40.251 77.7637 40.9446 76.7607 40.51C75.7723 40.0812 75.9172 39.1458 76.0128 38.2824C76.1143 37.3557 76.1955 36.4262 76.3114 35.2145C75.5983 36.17 75.0766 36.9125 74.5055 37.6176C74.1982 38.0004 73.8504 38.3774 73.4504 38.6537C72.6909 39.1717 71.9923 38.93 71.1893 37.9572C70.6705 38.7775 70.169 39.6063 69.6269 40.4121C69.1573 41.1057 68.5515 41.618 67.621 41.3417C66.7137 41.0712 66.2006 40.369 66.2412 39.5027C66.334 37.6522 66.5717 35.8074 66.7543 33.9626C66.7717 33.8072 66.8123 33.6518 66.8876 33.2777C65.0353 34.662 63.3338 35.9801 62.2902 37.7702C61.6467 38.8696 61.8119 40.3891 61.3684 41.6353C60.8264 43.1548 60.0814 44.6082 59.319 46.0414C58.9393 46.7494 58.2146 47.0746 57.3508 46.8473C56.5565 46.6372 56.1565 46.0242 56.171 45.3219C56.2116 43.575 56.3768 41.8281 56.5044 40.0812C56.5276 39.7588 56.6 39.4423 56.4899 39.0106C56.1971 39.3272 55.8724 39.6236 55.6115 39.9661C54.7303 41.1144 53.8549 42.2656 53.0056 43.4398C52.823 43.693 52.7244 44.0297 52.6665 44.3406C52.2867 46.3436 51.3272 48.0848 50.0663 49.6648C49.6894 50.1397 49.159 50.5685 48.5995 50.8045C48.1734 50.9829 47.4835 50.9915 47.1299 50.7584C46.8748 50.5886 46.7733 49.8001 46.9501 49.4605C47.6748 48.079 48.4952 46.7379 49.359 45.4342C49.7909 44.7838 50.4054 44.2485 50.9272 43.6527C51.0953 43.4599 51.3649 43.2239 51.3475 43.0225C51.304 42.4929 51.1301 41.9749 51.0055 41.4511C50.5504 41.641 49.9735 41.7216 49.6605 42.0411C47.2168 44.5219 45.8399 47.5006 45.5645 50.9397C45.3964 53.055 45.2776 55.1732 45.1123 57.2885C45.0718 57.7922 45.0805 58.4455 44.3036 58.3994C43.547 58.3563 43.634 57.7317 43.6079 57.2137C43.4427 54.0336 43.9731 50.9138 44.4108 47.7769C44.8544 44.6168 45.0544 41.4223 45.1819 38.1328C44.3181 39.143 43.5006 40.1963 42.5759 41.1518C41.3817 42.3807 40.9179 43.6239 41.0483 45.4515C41.2831 48.6949 40.1033 51.7225 38.3264 54.4883C37.9119 55.1329 37.3437 55.4553 36.5524 55.2912C35.7436 55.1272 35.4422 54.5429 35.2943 53.8292C34.8769 51.8175 35.3088 49.8778 35.7523 47.9294C35.8393 47.5495 35.761 47.1351 35.7668 46.735C35.7726 46.1882 35.5929 45.5263 35.8422 45.1147C36.4799 44.0729 37.2916 43.1261 38.0829 42.1821C38.251 41.9835 38.6627 41.7907 38.8859 41.8569C40.2715 42.2512 40.7497 41.1978 41.3788 40.4179C42.9064 38.5271 44.3906 36.6046 45.9269 34.7195C46.095 34.5123 46.5907 34.3022 46.7356 34.3914C46.982 34.5468 47.2284 34.9555 47.2052 35.2347C47.0777 36.6305 46.8487 38.0148 46.6834 39.4106C46.5124 40.8611 46.3733 42.3145 46.1994 43.9607C46.9182 43.0743 47.5009 42.3317 48.1154 41.6151C48.4343 41.2439 48.785 40.8784 49.1822 40.5877C50.646 39.5056 51.7707 39.7704 52.6432 41.336C53.8404 39.9776 54.9593 38.5069 56.2927 37.2579C57.2696 36.3427 58.2871 35.4879 59.061 34.3914C59.2813 34.0806 59.6321 33.8389 59.9596 33.6201C61.0467 32.892 61.983 33.269 62.2584 34.5209C62.3076 34.7425 62.3627 34.9584 62.4265 35.203C64.0121 33.8417 65.5455 32.492 67.1224 31.1969C67.4529 30.9264 67.9602 30.8688 68.3892 30.7134C68.4848 31.1566 68.7196 31.6228 68.6587 32.043C68.3341 34.1324 67.8964 36.2046 67.5746 38.294C67.4935 38.8321 67.679 39.4106 67.7427 39.9718L68.1341 40.0812C68.6327 39.307 69.2443 38.576 69.6095 37.7443C70.6386 35.3872 71.5517 32.9784 72.546 30.6069C72.7779 30.0543 72.8967 29.096 73.8156 29.473C74.7026 29.8356 74.0968 30.5666 73.9258 31.1652C73.4562 32.8201 72.9953 34.472 72.5749 36.1384C72.4793 36.5211 72.5605 36.9499 72.5605 37.3586C72.6619 37.3989 72.7663 37.4334 72.8677 37.4737L72.8735 37.4536ZM36.8277 53.9012C38.5989 52.2291 40.2946 46.3264 39.483 44.8528C37.1263 46.9566 35.9523 50.8793 36.8277 53.9012ZM60.3829 39.7732C59.606 40.1272 58.8668 40.4582 58.1335 40.8064C58.003 40.8697 57.8117 40.9849 57.7972 41.0913C57.6349 42.5332 57.1189 43.9779 57.745 45.6241C59.4987 43.9002 59.8553 41.7907 60.38 39.7732H60.3829ZM102.22 24.6869C100.272 24.8567 98.765 28.0196 98.8114 30.3767C100.467 28.6758 102.18 27.185 102.22 24.6869ZM60.7626 34.7138C59.2987 35.9571 58.4784 37.4478 58.2059 39.3156C60.5597 37.8824 61.2989 36.8521 60.7626 34.7138Z" fill="black"/>
<path d="M33.2614 69.0221C34.2412 68.2105 35.1282 67.3845 36.108 66.6823C37.34 65.8016 38.5371 66.1067 39.0879 67.4968C39.4908 68.5127 39.6329 69.6322 39.914 70.8122C41.4881 69.1113 43.1867 67.4737 44.6303 65.6433C45.439 64.6159 45.7028 63.1884 46.4275 62.0775C47.3609 60.6472 49.0219 60.4889 49.961 61.6286C50.7031 62.5351 51.2162 63.5597 50.9901 64.7943C50.8365 65.6261 50.7031 66.4578 50.7321 67.4219C51.2713 66.8463 51.8278 66.2851 52.3467 65.6952C54.9787 62.7078 57.5586 59.6716 60.2516 56.736C61.5879 55.2769 62.959 55.6683 64.2808 57.1131C65.249 58.175 65.1823 59.0068 64.6779 60.086C64.6055 60.2414 64.6692 60.4601 64.6692 60.6414C66.194 58.5895 67.7129 56.5375 69.2405 54.4912C69.5333 54.097 69.8 53.6365 70.1942 53.3659C70.5566 53.1127 71.1885 52.845 71.487 52.9947C71.7943 53.1472 72.0059 53.8149 71.9682 54.2265C71.8552 55.3892 71.4986 56.5346 71.4117 57.7002C71.3073 59.0787 71.3885 60.4688 71.3885 62.043C71.8697 60.8918 72.2465 59.8644 72.7219 58.8801C73.7162 56.8224 74.7713 54.7905 75.783 52.7386C76.0265 52.2493 76.354 51.8003 76.8961 52.1457C77.1425 52.304 77.2758 52.9659 77.1541 53.2882C76.4236 55.2424 75.9772 57.2253 76.0757 59.3118C76.0931 59.6917 76.1482 60.0716 76.2062 60.6587C76.5627 60.2788 76.7367 59.9738 76.9975 59.85C77.3164 59.7032 77.7135 59.709 78.0759 59.6514C78.0759 60.0025 78.2295 60.4745 78.0556 60.6817C77.4729 61.3696 77.0613 62.5006 75.8293 62.1351C74.6496 61.784 74.809 60.6616 74.6873 59.7579C74.6322 59.3406 74.6786 58.9118 74.4988 58.4254C74.093 59.3521 73.6901 60.2817 73.2785 61.2055C72.9306 61.9797 72.635 62.7913 72.1799 63.5021C71.9566 63.8504 71.3798 64.2389 71.0291 64.1871C70.6638 64.1353 70.1362 63.5885 70.1043 63.223C69.9623 61.5739 69.9362 59.9133 69.942 58.2556C69.942 57.4239 70.1073 56.5921 70.1971 55.7604C70.116 55.7086 70.0319 55.6597 69.9507 55.6079C68.4492 57.8987 66.9563 60.1954 65.4461 62.4805C63.5039 65.4189 63.4257 68.7429 63.2662 72.0756C63.1387 74.7089 62.8778 77.3394 62.6053 79.9612C62.5242 80.7325 62.2604 81.5355 61.2777 81.711C60.4719 81.8549 59.5617 81.2822 59.0602 80.321C58.1558 78.5913 58.1268 76.7609 58.7413 74.9881C59.7211 72.1591 60.8748 69.3876 61.9357 66.5844C62.1908 65.911 62.3821 65.2117 62.4285 64.4749C61.785 65.0735 61.1879 65.7297 60.4864 66.2535C59.2921 67.1514 57.9413 66.6247 57.7761 65.1627C57.6456 64.0087 57.7499 62.8287 57.7499 61.4847C57.1209 62.1725 56.5383 62.7683 56.0049 63.4043C53.6366 66.2247 51.2742 69.0509 48.932 71.8914C48.4537 72.4699 48.1812 73.2383 47.6334 73.7304C47.1435 74.1708 46.355 74.6543 45.7985 74.5593C45.2361 74.4643 44.4535 73.7391 44.3607 73.198C44.1056 71.6784 44.1549 70.1128 44.0824 68.5242C43.1519 69.4768 42.1779 70.5359 41.1373 71.5317C39.5082 73.0829 39.1111 75.1953 38.3342 77.1408C37.8791 78.2891 37.1805 79.2446 36.1167 79.9612C35.334 80.4879 34.534 80.6347 33.8093 80.0792C33.0411 79.4892 33.2093 78.5999 33.6933 77.9495C34.7688 76.5019 35.8848 75.0658 37.1341 73.765C38.5197 72.3202 38.7574 69.1919 37.2646 67.4363C36.4095 68.3055 35.4036 69.0537 34.7688 70.0322C33.4383 72.0842 32.6237 74.2945 32.6759 76.8415C32.7571 80.8534 32.5687 84.871 32.5281 88.8829C32.5223 89.5247 32.2846 89.9449 31.6613 89.9363C30.9656 89.9276 31.1164 89.3146 31.1251 88.8858C31.1686 86.8281 31.2584 84.7761 31.27 82.7183C31.2758 81.6189 31.0932 80.5167 31.1251 79.4202C31.1859 77.2013 31.3657 74.991 31.4352 72.7721C31.4932 71.0453 31.4352 69.3156 31.4729 67.586C31.4874 66.9384 31.5599 66.2794 31.728 65.6549C31.7976 65.4016 32.1715 65.1109 32.4411 65.0706C32.6092 65.0476 32.9948 65.4534 33.0208 65.6923C33.1281 66.665 33.1281 67.6464 33.1774 68.6249C33.1832 68.7458 33.2267 68.8609 33.2585 69.0106L33.2643 69.0192L33.2614 69.0221ZM46.0565 73.3908C47.8508 72.6368 49.3465 67.4709 49.5349 64.1324C49.5668 63.5539 49.2654 62.515 48.5639 62.3394C47.7348 62.3394 47.4189 63.0503 47.1957 63.5539C46.7348 64.5958 46.4797 65.7354 46.2014 66.8463C45.9086 68.0148 45.6042 69.189 45.468 70.3776C45.3579 71.3475 45.3202 72.3778 46.0565 73.3908ZM59.0892 65.0447C59.1935 65.0735 59.2921 65.2807 59.3993 65.3095C59.7066 65.0821 60.0573 64.8922 60.3182 64.6159C61.7502 63.1079 62.6256 61.2861 63.2373 59.3521C63.3561 58.9722 63.2025 58.4599 63.043 58.057C62.6372 57.0296 62.1184 56.9461 61.3966 57.7721C60.1849 59.1651 59.4747 60.794 59.2167 62.5927C59.0921 63.459 59.1211 64.3425 59.0776 65.2203L59.0863 65.0419L59.0892 65.0447ZM62.0053 70.556C61.9125 70.5445 61.8198 70.5301 61.727 70.5186C61.3705 71.4856 60.9212 72.4382 60.6719 73.434C60.3067 74.9075 59.9849 76.4069 59.8515 77.915C59.7762 78.7611 60.0458 79.6792 61.0371 80.3498C61.9647 77.0228 61.8227 73.7736 62.0053 70.556ZM37.137 75.6702L34.7427 78.7841C34.8239 78.8417 34.905 78.8993 34.9862 78.9568C36.3776 78.3467 36.8559 77.0861 37.137 75.6702Z" fill="black"/>
<path d="M90.2595 13.155C92.0306 11.0138 93.8017 8.87255 95.6975 6.58169C95.3004 6.69393 95.083 6.81768 94.8829 6.79754C94.6453 6.77451 94.3177 6.68817 94.2163 6.52125C94.109 6.3457 94.1264 5.95429 94.2598 5.80464C95.9671 3.89655 97.4165 1.72944 99.7992 0.497672C100.089 0.348018 100.402 0.195486 100.718 0.152316C101.562 0.0314417 102.231 0.51494 102.191 1.33804C102.005 5.29236 101.336 9.12006 98.8397 12.4124C98.3238 13.0916 97.6831 13.5665 96.7874 13.2499C95.9207 12.9449 95.6308 12.2254 95.6917 11.362C95.7497 10.5187 95.8192 9.67838 95.9062 8.50417C94.7061 9.98632 93.6858 11.2728 92.6336 12.5304C92.1263 13.1348 91.5755 13.7018 91.016 14.263C90.4972 14.7868 89.8595 15.1321 89.1348 14.758C88.4275 14.3925 88.4594 13.6845 88.5579 13.0197C88.8304 11.1577 89.1174 9.29849 89.4246 7.29542C88.3695 8.23076 87.3492 9.12293 86.3462 10.0324C85.8099 10.5187 85.1664 10.9677 84.8215 11.5721C84.4388 12.2426 84.3287 13.0657 84.1171 13.8226C84.0736 13.9781 84.1171 14.1507 84.0881 14.309C83.9953 14.8098 84.0098 15.4746 83.259 15.4142C82.4503 15.3508 82.5517 14.663 82.601 14.1277C82.801 12.0182 83.0358 9.9115 83.2561 7.80482C83.2706 7.66093 83.2561 7.51127 83.2561 7.15153C82.1227 9.06825 81.1198 10.8123 80.0675 12.5362C79.5544 13.3766 79.0124 14.2054 78.3949 14.971C77.3079 16.315 75.3455 16.0876 74.9658 14.4385C74.6411 13.0283 74.8962 11.4857 74.9455 10.0036C74.9629 9.49419 75.1397 8.99055 75.2412 8.4869C75.1484 8.40632 75.0585 8.32574 74.9629 8.24228C74.5222 8.77182 74.1599 9.40785 73.6178 9.79925C73.1685 10.1245 72.467 10.3432 71.9482 10.2482C71.6873 10.1993 71.551 9.35605 71.4177 8.85528C71.3481 8.58188 71.4061 8.27393 71.4061 7.84799C70.3742 8.46388 69.3973 9.04523 68.3711 9.65823C69.6379 12.2196 69.0466 14.804 68.603 17.3654C68.2349 19.498 66.9015 21.1097 65.284 22.4623C63.9274 23.5962 62.3737 22.9688 62.0142 21.2651C61.5446 19.0346 62.0519 16.8474 62.3128 14.6515C62.4171 13.7766 62.5534 12.9046 62.594 12.0297C62.6751 10.3058 64.8521 8.42647 66.6174 8.53295C67.0725 8.56173 67.5943 8.4351 67.9972 8.21925C68.9596 7.70697 69.8466 7.0508 70.8148 6.54428C71.3076 6.28526 71.9076 6.2277 72.4612 6.08092C72.6062 6.61335 72.7685 7.14577 72.8874 7.68683C72.9337 7.8998 72.8758 8.13867 72.8497 8.6567C73.7715 7.75302 74.5136 6.99324 75.2962 6.27375C75.7832 5.82191 76.2673 5.05061 77.05 5.55713C77.7573 6.01473 77.2442 6.71983 77.1137 7.34435C76.7311 9.15747 76.4006 10.9792 76.0673 12.801C76.0238 13.0514 76.0209 13.3507 76.1252 13.5751C76.2673 13.8802 76.476 14.2227 76.7572 14.3608C76.8818 14.4241 77.334 14.0932 77.4877 13.8514C78.7138 11.9117 79.9168 9.96042 81.0966 7.99189C81.7024 6.98173 82.2416 5.93127 82.8242 4.90671C83.001 4.59302 83.1663 4.23615 83.4358 4.0203C83.7373 3.78143 84.1693 3.54544 84.5171 3.57997C84.7026 3.59724 84.9722 4.19586 84.9577 4.52395C84.9026 5.76147 84.7461 6.99324 84.6272 8.22789C84.5837 8.69987 84.5345 9.17474 84.6968 9.76472C86.4911 7.99477 88.2854 6.22194 90.0827 4.452C90.5262 4.01455 90.8421 3.15116 91.6422 3.55119C92.506 3.98289 92.0103 4.75418 91.7784 5.37007C90.845 7.85087 90.1 10.372 90.2537 13.1492L90.2595 13.155ZM67.3943 10.4094C65.1275 11.4109 63.7477 12.6225 63.6955 14.8933C63.6491 16.8416 63.3853 18.7843 63.3882 20.7326C63.3882 21.7169 63.9361 21.8666 64.6521 21.1758C65.9246 19.9527 67.0261 18.6145 67.2638 16.7898C67.3972 15.7566 67.6378 14.7263 67.661 13.6903C67.6841 12.6484 67.4986 11.6009 67.3914 10.4123L67.3943 10.4094ZM100.782 1.78988C100.689 1.72081 100.593 1.65174 100.501 1.57979C99.434 2.45757 98.3672 3.33535 97.144 4.33688C98.5383 4.52107 98.7673 4.82901 98.4919 5.82191C98.4136 6.10395 98.2484 6.36009 98.1759 6.64213C97.7991 8.08399 97.4222 9.52585 97.0918 10.9792C97.028 11.2613 97.1701 11.5893 97.2483 12.1074C99.8659 8.92148 100.48 5.40172 100.779 1.78124L100.782 1.78988Z" fill="black"/>
<path d="M2.92354 44.1795C3.29458 43.5953 3.79317 43.0513 4.01347 42.4153C4.74105 40.3259 5.34688 38.1962 6.05127 36.1011C6.24839 35.5111 6.17591 34.5124 7.17018 34.6391C8.16444 34.7628 7.85139 35.6981 7.86878 36.3284C7.91226 37.8768 7.88327 39.428 7.88327 40.9763L8.2572 41.0425C8.78767 40.159 9.31815 39.2755 9.83992 38.389C10.5704 37.1458 11.382 35.9428 12.0082 34.6506C12.8865 32.8432 13.617 30.9639 14.4315 29.1278C14.7359 28.4428 15.0837 27.7751 15.4432 27.1161C15.8461 26.3793 16.394 25.8267 17.3563 26.0311C18.2752 26.2239 18.6173 26.9952 18.6144 27.7204C18.6086 29.9595 18.6666 32.2331 18.2955 34.429C17.9883 36.2277 17.136 37.943 16.4548 39.6726C16.2345 40.2338 15.8432 40.749 15.4548 41.2267C14.9591 41.8397 14.1851 42.2023 13.5097 41.8081C12.959 41.4857 12.4285 40.8037 12.298 40.1964C12.0951 39.2639 12.243 38.2624 12.0806 37.2321C11.669 37.9861 11.2864 38.7545 10.8429 39.4913C10.1501 40.6425 9.35872 41.7419 8.7268 42.9247C8.44272 43.4571 8.23982 44.168 8.33838 44.7436C9.08625 49.1814 9.94138 53.5991 10.7124 58.034C11.0313 59.8615 11.3125 61.7063 11.4661 63.554C11.698 66.4089 9.72107 67.7213 7.08322 66.3888C3.74968 64.7023 2.29161 61.833 2.14957 58.2326C2.03072 55.1964 2.88006 52.3673 4.00767 49.5958C4.77873 47.6935 5.75851 45.8602 6.40203 43.9205C6.76727 42.8269 6.64261 41.575 6.73537 40.395C6.63101 40.372 6.52956 40.3461 6.4252 40.323C6.22229 40.8238 6.04547 41.339 5.81357 41.8282C5.37586 42.7376 4.96715 43.6701 4.42509 44.522C3.98448 45.2127 3.22501 45.7653 2.39887 45.4199C1.80753 45.1724 1.30315 44.5393 0.963996 43.9637C0.659629 43.4514 0.543675 42.7895 0.505991 42.1822C0.30308 39.1229 0.00161144 36.0464 1.01327 33.0562C1.60461 31.3035 2.74961 29.9077 4.18449 28.7363C5.60776 27.5737 7.23686 28.0284 7.8282 29.7494C7.99632 30.2386 8.13546 30.7538 8.18474 31.2632C8.20793 31.5337 7.98762 32.0604 7.89486 32.0604C7.54412 32.046 7.06293 31.9568 6.88901 31.7179C6.66001 31.4013 6.68899 30.9178 6.59043 30.5092C6.32955 29.4242 5.78169 29.2515 4.90917 29.971C3.14094 31.433 2.03364 33.3123 1.8945 35.5283C1.74666 37.8566 1.92637 40.2108 2.02783 42.5477C2.05102 43.0686 2.34669 43.5751 2.51771 44.0903C2.65395 44.1248 2.7873 44.1594 2.92354 44.191V44.1795ZM7.03105 46.2603C6.97017 46.2488 6.90929 46.2401 6.84552 46.2286C6.47159 47.1582 6.08316 48.0849 5.72371 49.0202C4.50914 52.1572 3.31487 55.2942 3.60474 58.7535C3.81925 61.312 4.91497 63.3784 7.10642 64.8116C7.6079 65.1397 8.26302 65.3182 8.86885 65.3988C9.59353 65.4966 10.0921 65.1628 10.0457 64.3339C9.99066 63.4245 10.0515 62.4949 9.88919 61.6056C9.27756 58.2758 8.57898 54.9632 7.94415 51.6392C7.605 49.852 7.33541 48.0533 7.03105 46.2603ZM13.8547 40.5705C16.2751 39.2006 18.3709 30.1293 16.852 27.2686C16.4143 28.3363 16.0026 29.24 15.6751 30.1696C15.4635 30.7711 15.5098 31.4906 15.2055 32.0287C13.8692 34.3916 13.5735 36.9357 13.646 39.5604C13.6547 39.8856 13.7764 40.205 13.8518 40.5705H13.8547Z" fill="black"/>
<path d="M54.7749 17.5698C54.4358 18.0418 54.2126 18.344 53.9981 18.6519C52.0617 21.4263 50.0471 24.1488 48.218 26.9894C47.0179 28.8543 44.9975 28.4859 44.1685 26.9203C43.838 26.2958 43.5481 25.6482 43.2235 24.9892C42.7858 26.4138 42.3915 27.8269 41.9045 29.2054C41.661 29.899 41.3596 30.7537 40.403 30.6789C39.3595 30.5955 39.258 29.6342 39.2 28.8859C38.9275 25.2712 39.1797 21.7112 40.8117 18.3699C41.5161 16.9309 42.0698 16.5855 43.1075 16.787C44.0206 16.9654 45.1482 18.2605 45.183 19.3023C45.2091 20.0448 45.0758 20.796 45.0236 21.5414C44.9221 22.9948 44.4264 24.4654 45.1946 25.8842C45.8758 27.139 46.3367 27.162 47.1339 26.008C48.8702 23.4955 50.6616 21.0205 52.3545 18.4821C53.2937 17.0748 54.0792 15.5696 54.9344 14.1105C54.8271 14.0213 54.717 13.9292 54.6097 13.8399C53.8821 14.4558 53.1661 15.0832 52.4269 15.6818C52.1777 15.8862 51.8269 16.2085 51.6037 16.1567C51.2356 16.0675 50.8239 15.7768 50.6413 15.4545C50.5486 15.2847 50.8239 14.7638 51.0732 14.5882C52.4211 13.6299 53.8299 12.755 55.1865 11.8052C56.1344 11.1404 57.0185 10.3835 57.9577 9.70719C58.378 9.40212 58.8534 9.05964 59.3433 8.99633C59.6506 8.95604 60.0854 8.99633 60.3695 9.62085C60.2014 9.95757 59.9463 10.3835 59.6216 10.6137C58.6505 11.2987 57.6186 11.9002 56.6214 12.5506C56.546 12.5995 56.5345 12.7722 56.5287 12.8902C56.3953 15.2271 56.2533 17.564 56.1489 19.9038C56.1141 20.7125 56.1634 21.5241 56.1953 22.3299C56.2214 22.9084 56.2475 23.5444 55.4996 23.6308C54.7372 23.72 54.6677 23.0293 54.6619 22.5429C54.6445 21.3054 54.7314 20.065 54.7691 18.8246C54.7807 18.4763 54.7691 18.131 54.7691 17.5669L54.7749 17.5727V17.5698ZM40.5276 28.2787L40.7711 28.3247C41.3306 26.3015 41.919 24.2841 42.4379 22.2522C42.6205 21.5356 42.8031 20.9284 43.6902 20.9687C43.9279 19.1527 43.7945 18.79 42.6031 18.1339C40.6291 21.2795 40.4929 24.7647 40.5276 28.2787Z" fill="black"/>
<path d="M100.932 48.3525C100.106 49.5468 99.2163 50.7038 98.4713 51.9413C97.5263 53.5127 96.6973 55.1531 95.819 56.7619C95.5668 57.2252 95.3117 57.8498 94.6566 57.5073C93.9696 57.1475 94.3406 56.5432 94.5986 56.051C95.045 55.1934 95.5146 54.3444 96.1059 53.245C94.4479 54.2926 93.0478 55.1905 91.6332 56.074C89.8331 57.1965 88.9577 56.7533 88.2736 54.8135C87.9344 53.8551 88.2909 53.3832 88.7228 52.6982C89.404 51.6247 89.8012 50.3498 90.5983 49.3799C91.6303 48.1222 92.9086 47.0459 94.1435 45.958C94.6421 45.5206 95.3378 45.2558 95.9668 45.7882C96.5987 46.3235 96.3726 46.997 96.0596 47.5869C94.7551 50.039 92.9492 52.0622 90.5259 53.5098C89.7925 53.9501 89.6418 54.4797 89.9693 55.3373C90.2969 55.1848 90.5635 55.084 90.8012 54.943C94.0565 53.0349 97.0654 50.8362 99.4916 47.9352C100.083 47.2301 100.773 46.5969 101.477 46.0012C101.758 45.7652 102.211 45.7191 102.585 45.5867C102.677 45.9638 102.872 46.3494 102.843 46.7149C102.64 49.2821 102.37 51.8463 102.173 54.4135C102.127 55.0236 102.335 55.651 102.303 56.264C102.286 56.5432 101.964 56.8022 101.782 57.0727C101.503 56.8626 100.99 56.6612 100.985 56.4453C100.941 54.7934 100.976 53.1385 101.028 51.4866C101.06 50.4937 101.179 49.5008 101.26 48.5079C101.153 48.4561 101.042 48.4014 100.935 48.3496L100.932 48.3525ZM94.4218 47.869C94.3029 47.7596 94.1812 47.6474 94.0623 47.538C93.013 48.7496 91.9636 49.9641 90.9114 51.1758L91.2535 51.4636C92.3115 50.2663 93.3637 49.0691 94.4218 47.8719V47.869Z" fill="black"/>
<path d="M31.4612 28.2988C29.8669 30.6673 28.2552 33.1223 26.5595 35.5254C26.058 36.2333 25.3942 36.8866 24.6695 37.3759C23.3593 38.2565 21.8635 37.845 21.1069 36.478C20.8577 36.029 20.6605 35.511 20.5997 35.0073C20.3156 32.5697 20.1504 30.1205 21.133 27.7779C21.7795 26.2353 22.6665 25.841 24.3651 26.2756C24.484 26.1202 24.5825 25.8755 24.7593 25.7921C25.0028 25.6798 25.3449 25.5964 25.5797 25.677C25.7449 25.7345 25.8985 26.0943 25.8841 26.313C25.8174 27.3836 25.7333 28.4628 25.5652 29.5219C25.5217 29.7982 25.1449 30.0256 24.9217 30.2731C24.6753 30.0083 24.3419 29.7809 24.2028 29.4701C24.0666 29.1564 24.1912 28.742 24.0752 28.411C23.9593 28.0858 23.7187 27.6196 23.4694 27.5735C23.2027 27.5246 22.6694 27.8469 22.5853 28.1088C22.2461 29.1564 21.8664 30.2357 21.8258 31.3178C21.7708 32.6647 21.907 34.0518 22.1969 35.3728C22.4578 36.5672 23.3158 36.7427 24.2898 35.9599C24.6463 35.6721 24.9913 35.3412 25.255 34.967C27.4349 31.8905 29.7307 28.8801 30.925 25.251C31.096 24.7272 31.2931 24.1919 31.5917 23.7315C31.7743 23.4494 32.2787 23.0724 32.4613 23.1501C32.7743 23.2825 33.1425 23.7286 33.1425 24.0451C33.1483 25.1819 32.9831 26.3187 32.9251 27.4555C32.8555 28.8571 32.87 30.2616 32.7541 31.6574C32.7222 32.0171 32.5598 32.4949 32.1047 32.6848C31.7366 32.61 31.5511 32.1553 31.3221 31.8559C30.6293 30.9551 31.3424 30.0659 31.383 29.1708C31.3975 28.8312 31.4496 28.4945 31.4699 28.2959H31.4641L31.4612 28.2988Z" fill="black"/>
<path d="M114.317 56.9261C113.112 57.1765 112.912 57.0239 113.071 55.9015C113.401 53.5819 113.741 51.2622 114.103 48.7354C113.199 49.9499 112.393 51.032 111.587 52.1199C110.824 53.1473 110.094 54.2035 109.294 55.2022C108.83 55.7806 108.317 56.5145 107.41 56.1778C106.491 55.8353 106.418 54.946 106.584 54.1776C107.103 51.7659 107.671 49.3657 108.317 46.9856C108.552 46.1164 109.05 45.3164 109.433 44.4875C109.685 43.9436 110.135 43.5522 110.665 43.9695C110.885 44.145 110.877 44.8847 110.691 45.2185C109.106 48.0562 108.439 51.1385 108.152 54.3848C108.508 53.9359 108.871 53.4927 109.216 53.0379C111.372 50.1772 113.512 47.3022 115.694 44.4645C115.897 44.2026 116.39 44.1508 116.752 44.004C116.831 44.3983 117.109 44.9077 116.955 45.1782C115.697 47.3712 115.451 49.8146 115.022 52.2091C114.741 53.7747 114.552 55.3547 114.32 56.9347V56.9289L114.317 56.9261Z" fill="black"/>
<path d="M29.725 54.2582C29.0931 56.3274 28.5018 58.1866 27.9626 60.063C27.8119 60.5868 27.6379 61.1106 27.0234 60.8832C26.7596 60.7854 26.4872 60.1062 26.5799 59.7925C27.2611 57.4815 28.0061 55.1906 28.7946 52.917C29.0149 52.2896 29.1163 51.7371 28.7192 51.1759C27.6003 49.5987 26.5799 47.9295 25.2871 46.4992C24.8059 45.9668 24.1798 45.6185 24.2174 44.8415C24.2348 44.5047 24.3218 44.1105 24.6204 43.8543C25.0291 43.65 25.4639 44.0788 25.6639 44.3436C26.9684 46.0761 28.209 47.8518 29.4642 49.616C29.5395 49.7225 29.554 49.8664 29.5975 49.9959C29.6874 49.9499 29.7772 49.9009 29.8671 49.8549C30.6845 47.1553 31.5107 44.4616 32.3136 41.7563C32.473 41.221 32.5397 40.49 33.305 40.7893C33.5891 40.9015 33.8152 41.7534 33.6963 42.1621C32.8267 45.1235 31.8991 48.0763 30.9048 51.0032C30.5889 51.9299 30.7976 52.7271 31.1106 53.5502C31.3889 54.2812 31.7426 54.9863 31.9716 55.7288C32.0672 56.0425 32.4006 56.4512 31.8904 56.7764C31.3802 57.1016 30.9918 56.6382 30.8092 56.385C30.3947 55.8123 30.1512 55.1216 29.7279 54.2553L29.725 54.2582Z" fill="black"/>
<path d="M26.2969 23.3947C26.581 22.8738 26.7143 22.399 27.0216 22.1025C29.642 19.5872 32.6277 17.6302 36.1584 16.5365C36.4105 16.4588 36.6975 16.3639 36.9381 16.4157C37.2193 16.479 37.6193 16.4157 37.7208 16.8387C37.7208 17.1985 37.4454 17.5179 37.1903 17.6532C36.7352 17.8949 36.1786 17.9467 35.6859 18.1367C33.2103 19.0807 31.0305 20.5081 28.9985 22.1457C28.5405 22.5169 28.2738 23.1098 27.8767 23.5616C27.6448 23.8207 27.3027 24.2063 27.0563 24.1747C26.7868 24.1401 26.5722 23.694 26.2998 23.3918L26.2969 23.3947Z" fill="black"/>
<path d="M81.4785 59.0384C81.7829 57.0555 82.0873 55.1301 82.3626 53.199C82.4931 52.2982 82.4902 51.3715 82.7018 50.4937C82.7888 50.134 83.2815 49.6044 83.583 49.6073C84.2642 49.6131 84.1773 50.2347 84.1135 50.7297C83.7222 53.7257 83.3424 56.7188 82.925 59.709C82.8931 59.9392 82.5829 60.3277 82.4525 60.3105C82.1423 60.2702 81.7771 60.086 81.5887 59.8442C81.435 59.6457 81.5075 59.283 81.4814 59.0442L81.4785 59.0384Z" fill="black"/>
<path d="M87.4703 46.7322C87.6152 46.8559 88.0819 47.1034 88.0529 47.2704C88.0008 47.5841 87.7138 48.0215 87.4326 48.1021C85.6238 48.6374 83.786 49.0835 81.9598 49.5756C81.3829 49.731 80.6873 49.6159 80.3423 50.3411C80.2814 50.4735 79.6901 50.5109 79.4669 50.3843C79.1567 50.2116 78.8523 49.872 78.7596 49.5439C78.7074 49.354 79.0263 48.8993 79.264 48.8245C80.1104 48.551 81.0003 48.4014 81.867 48.1769C83.5019 47.751 85.131 47.302 86.763 46.8674C86.9224 46.8243 87.0906 46.8041 87.4703 46.7322Z" fill="black"/>
</svg>
