<svg width="199" height="49" viewBox="0 0 199 49" fill="none" xmlns="http://www.w3.org/2000/svg">
<g clip-path="url(#clip0_395_215)">
<path d="M92.9829 8.92871H15.6837C7.02181 8.92871 0 15.8999 0 24.4992C0 33.0986 7.02181 40.0697 15.6837 40.0697H92.9829C101.645 40.0697 108.667 33.0986 108.667 24.4992C108.667 15.8999 101.645 8.92871 92.9829 8.92871Z" fill="#FF335F"/>
<path d="M23.8576 25.0727C23.7694 21.0731 20.4769 17.859 16.4279 17.859C12.379 17.859 8.99512 21.1623 8.99512 25.2386H11.9676C11.9676 28.4981 14.6296 31.141 17.9142 31.141C21.1988 31.141 23.7709 28.5872 23.8576 25.4029C23.8592 25.3481 23.8608 25.2934 23.8608 25.2386C23.8608 25.1838 23.8608 25.1275 23.8576 25.0743V25.0727ZM17.9142 28.1898C16.2719 28.1898 14.9417 26.8675 14.9417 25.2386C14.9417 23.6096 16.2735 22.2874 17.9142 22.2874C19.5549 22.2874 20.8867 23.6096 20.8867 25.2386C20.8867 26.8675 19.5549 28.1898 17.9142 28.1898ZM66.1693 20.6115C63.5798 20.6115 61.4725 22.6864 61.4725 25.2386C61.4725 27.7908 63.5356 29.8657 66.1693 29.8657C68.8029 29.8657 70.866 27.833 70.866 25.2386C70.866 22.6442 68.7588 20.6115 66.1693 20.6115ZM66.1693 27.9238C64.7839 27.9238 63.7784 26.697 63.7784 25.237C63.7784 23.7771 64.7839 22.5503 66.1693 22.5503C67.5547 22.5503 68.5413 23.8005 68.5413 25.237C68.5413 26.6735 67.5436 27.9238 66.1693 27.9238ZM45.5304 20.8086L45.5194 21.8367C45.5194 21.8367 45.4122 21.71 45.3255 21.6067C44.8826 21.0794 44.0347 20.6084 42.7833 20.6084C40.4759 20.6084 38.5988 22.6833 38.5988 25.2355C38.5988 25.2355 38.5988 25.2355 38.5988 25.237C38.5988 25.2386 38.5988 25.237 38.5988 25.2386C38.5988 27.7892 40.4759 29.8657 42.7833 29.8657C44.0347 29.8657 44.8826 29.3947 45.3255 28.8673C45.4138 28.7625 45.5194 28.6373 45.5194 28.6373L45.5304 29.6654H47.8078V20.8071H45.5304V20.8086ZM45.6659 25.2386C45.6659 26.7533 44.7298 27.9253 43.3113 27.9253C41.8928 27.9253 40.903 26.7533 40.903 25.2386C40.903 25.2386 40.903 25.2386 40.903 25.237C40.903 25.2355 40.903 25.237 40.903 25.2355C40.903 23.7207 41.8928 22.5487 43.3113 22.5487C44.7298 22.5487 45.6659 23.7207 45.6659 25.2355C45.6659 25.2355 45.6659 25.2355 45.6659 25.237C45.6659 25.2386 45.6659 25.237 45.6659 25.2386ZM88.1683 20.8086L88.1573 21.8367C88.1573 21.8367 88.0501 21.71 87.9634 21.6067C87.5205 21.0794 86.6726 20.6084 85.4212 20.6084C83.1138 20.6084 81.2367 22.6833 81.2367 25.2355C81.2367 25.2355 81.2367 25.2355 81.2367 25.237C81.2367 25.2386 81.2367 25.237 81.2367 25.2386C81.2367 27.7892 83.1138 29.8657 85.4212 29.8657C86.6726 29.8657 87.5205 29.3947 87.9634 28.8673C88.0517 28.7625 88.1573 28.6373 88.1573 28.6373L88.1683 29.6654H90.4458V20.8071H88.1683V20.8086ZM88.3039 25.2386C88.3039 26.7533 87.3677 27.9253 85.9492 27.9253C84.5307 27.9253 83.5409 26.7533 83.5409 25.2386C83.5409 25.2386 83.5409 25.2386 83.5409 25.237C83.5409 25.2355 83.5409 25.237 83.5409 25.2355C83.5409 23.7207 84.5307 22.5487 85.9492 22.5487C87.3677 22.5487 88.3039 23.7207 88.3039 25.2355C88.3039 25.2355 88.3039 25.2355 88.3039 25.237C88.3039 25.2386 88.3039 25.237 88.3039 25.2386ZM33.0163 22.5503C31.6088 22.5503 30.6253 23.7113 30.6253 25.237C30.6253 26.7627 31.6088 27.9238 33.0163 27.9238C34.0092 27.9238 34.7515 27.3401 35.1692 26.4137H37.4782C36.9139 28.5779 35.2559 29.8641 33.0163 29.8641C30.3385 29.8641 28.3195 27.8753 28.3195 25.237C28.3195 22.5988 30.3385 20.6099 33.0163 20.6099C35.2559 20.6099 36.9139 21.8962 37.4782 24.0603H35.1692C34.7515 23.1339 34.0092 22.5503 33.0163 22.5503ZM54.8514 24.6972L57.9169 20.8086H59.876V29.6623H57.5875V24.2215L54.8687 27.6969L52.1311 24.2246V29.6638H49.8426V20.8102H51.8017L54.8498 24.6987L54.8514 24.6972ZM76.9623 25.1682L81.2761 29.6638H78.3587L74.7353 25.8379V29.6638H72.4468V20.8102H74.7353V24.6987L77.9805 20.8102H80.6756L76.9639 25.1682H76.9623ZM94.6933 22.7146H92.0014V20.8086H99.6737V22.7146H96.9818V29.6623H94.6933V22.7146Z" fill="white"/>
<path d="M175.008 20.3642C175.438 19.7602 175.908 19.1781 176.288 18.5459C176.735 17.7979 177.106 17.0061 177.511 16.2347C177.594 16.0766 177.656 15.8889 177.783 15.7809C177.902 15.6807 178.124 15.5947 178.25 15.6401C178.371 15.6823 178.507 15.9045 178.499 16.0407C178.483 16.3176 178.365 16.5868 178.307 16.8622C178.013 18.2642 177.725 19.6694 177.44 21.073C177.43 21.1153 177.47 21.1669 177.558 21.4142C177.752 21.156 177.88 20.9713 178.023 20.7992C179.233 19.3502 180.267 17.7995 181.005 16.0594C181.246 15.4898 181.568 14.9469 181.908 14.4242C182.017 14.2583 182.299 14.202 182.504 14.0956C182.575 14.3272 182.74 14.5729 182.702 14.7857C182.466 16.1267 182.132 17.4521 181.941 18.7978C181.858 19.3862 182.036 20.009 182.182 20.6224C182.992 19.7195 183.564 18.7305 183.951 17.643C184.307 16.6415 184.602 15.6182 184.981 14.6245C185.111 14.2865 185.202 13.6731 185.765 13.8797C186.305 14.0768 185.951 14.5744 185.889 14.9531C185.676 16.2237 185.437 17.4928 185.281 18.7712C185.237 19.128 185.446 19.5145 185.539 19.8869C185.859 19.7148 186.23 19.5974 186.488 19.3611C187.03 18.8651 187.595 18.3612 187.993 17.7604C188.247 17.377 188.255 16.8215 188.31 16.3364C188.422 15.3115 188.685 14.3397 189.38 13.5448C189.804 13.0613 190.275 12.6012 191.022 12.6419C191.484 12.667 191.718 12.8876 191.733 13.3398C191.766 14.3147 191.399 15.1472 190.769 15.8717C190.274 16.4397 189.719 16.9592 189.234 17.5319C189.079 17.715 188.958 18.0186 188.992 18.2408C189.078 18.7947 189.202 19.3596 189.421 19.8744C189.773 20.699 190.547 20.9557 191.287 20.4377C192.48 19.6053 193.651 18.7305 194.745 17.7776C195.568 17.0609 196.242 16.183 197.01 15.4038C197.149 15.2629 197.421 15.252 197.633 15.1831C197.629 15.4038 197.718 15.7042 197.606 15.8325C196.786 16.7573 195.984 17.7119 195.06 18.5334C194.058 19.4253 192.942 20.1999 191.855 20.9964C190.695 21.8476 189.158 21.5174 188.557 19.8838C188.436 19.5521 188.353 19.2078 188.231 18.7963C187.955 19.0607 187.706 19.3252 187.432 19.5599C187.062 19.8744 186.69 20.1889 186.286 20.4612C185.607 20.9197 184.964 20.7178 184.696 19.9526C184.559 19.5599 184.516 19.1358 184.416 18.6648C184.127 19.1718 183.865 19.6459 183.587 20.1122C183.413 20.4033 183.215 20.6787 183.021 20.9572C182.761 21.3312 182.412 21.5425 181.952 21.3719C181.498 21.2029 181.207 20.8853 181.21 20.3673C181.218 19.4128 181.213 18.4583 181.213 17.5147C181.162 17.5914 181.092 17.7056 181.014 17.8167C180.177 19.0169 179.341 20.2155 178.502 21.4142C178.472 21.458 178.431 21.494 178.392 21.5331C178.042 21.8852 177.667 22.2623 177.121 22.026C176.584 21.7928 176.663 21.2843 176.715 20.8148C176.77 20.311 176.814 19.8055 176.877 19.1468C176.489 19.6663 176.206 20.07 175.895 20.4534C175.728 20.6615 175.539 20.8665 175.322 21.0167C174.909 21.2984 174.529 21.1669 174.092 20.638C173.81 21.084 173.537 21.5346 173.243 21.9728C172.987 22.3499 172.658 22.6284 172.152 22.4782C171.659 22.3311 171.38 21.9493 171.402 21.4783C171.452 20.4722 171.581 19.4691 171.681 18.4661C171.69 18.3816 171.712 18.2971 171.753 18.0937C170.746 18.8463 169.821 19.563 169.254 20.5363C168.904 21.1341 168.994 21.9603 168.752 22.6378C168.458 23.464 168.053 24.2543 167.638 25.0335C167.432 25.4185 167.038 25.5953 166.568 25.4717C166.136 25.3574 165.919 25.0241 165.926 24.6423C165.949 23.6925 166.038 22.7427 166.108 21.7928C166.12 21.6176 166.16 21.4455 166.1 21.2107C165.941 21.3829 165.764 21.544 165.622 21.7302C165.143 22.3546 164.667 22.9805 164.205 23.619C164.106 23.7567 164.052 23.9397 164.021 24.1087C163.814 25.1978 163.293 26.1445 162.607 27.0036C162.402 27.2618 162.114 27.495 161.81 27.6233C161.578 27.7203 161.203 27.725 161.011 27.5982C160.872 27.5059 160.817 27.0772 160.913 26.8925C161.307 26.1414 161.753 25.4122 162.223 24.7034C162.457 24.3497 162.792 24.0587 163.075 23.7347C163.167 23.6299 163.313 23.5016 163.304 23.3921C163.28 23.1041 163.186 22.8225 163.118 22.5377C162.87 22.641 162.557 22.6848 162.387 22.8585C161.058 24.2073 160.309 25.8269 160.16 27.6968C160.068 28.8469 160.004 29.9986 159.914 31.1487C159.892 31.4226 159.896 31.7778 159.474 31.7528C159.063 31.7293 159.11 31.3897 159.096 31.1081C159.006 29.379 159.294 27.6827 159.532 25.9771C159.773 24.259 159.882 22.522 159.951 20.7335C159.482 21.2827 159.037 21.8554 158.535 22.3749C157.885 23.0431 157.633 23.7191 157.704 24.7127C157.832 26.4763 157.19 28.1224 156.224 29.6262C155.999 29.9767 155.69 30.152 155.259 30.0628C154.82 29.9736 154.656 29.6559 154.575 29.2679C154.349 28.1741 154.583 27.1194 154.824 26.06C154.872 25.8535 154.829 25.6282 154.832 25.4106C154.836 25.1133 154.738 24.7534 154.873 24.5297C155.22 23.9632 155.661 23.4484 156.092 22.9351C156.183 22.8272 156.407 22.7223 156.528 22.7583C157.282 22.9727 157.542 22.4 157.884 21.9759C158.714 20.9479 159.521 19.9026 160.357 18.8776C160.448 18.765 160.717 18.6507 160.796 18.6992C160.93 18.7837 161.064 19.0059 161.052 19.1577C160.982 19.9166 160.858 20.6693 160.768 21.4282C160.675 22.2169 160.599 23.0071 160.505 23.9022C160.896 23.4202 161.212 23.0165 161.546 22.6269C161.72 22.425 161.911 22.2263 162.127 22.0682C162.922 21.4799 163.534 21.6238 164.008 22.4751C164.659 21.7365 165.268 20.9369 165.993 20.2578C166.524 19.7602 167.077 19.2954 167.498 18.6992C167.618 18.5302 167.808 18.3988 167.986 18.2799C168.577 17.884 169.087 18.089 169.236 18.7697C169.263 18.8901 169.293 19.0075 169.328 19.1405C170.19 18.4004 171.024 17.6665 171.881 16.9623C172.061 16.8152 172.336 16.7839 172.57 16.6994C172.622 16.9404 172.749 17.1939 172.716 17.4224C172.54 18.5584 172.302 19.6851 172.127 20.8211C172.083 21.1137 172.184 21.4282 172.218 21.7334L172.431 21.7928C172.702 21.3719 173.035 20.9745 173.233 20.5222C173.793 19.2407 174.289 17.9309 174.83 16.6415C174.956 16.3411 175.02 15.82 175.52 16.025C176.002 16.2222 175.673 16.6196 175.58 16.9451C175.325 17.8449 175.074 18.7431 174.846 19.6491C174.794 19.8572 174.838 20.0903 174.838 20.3125C174.893 20.3344 174.95 20.3532 175.005 20.3751L175.008 20.3642ZM155.409 29.307C156.372 28.3978 157.294 25.1884 156.853 24.3873C155.572 25.5311 154.933 27.6639 155.409 29.307ZM168.217 21.6254C167.794 21.8179 167.392 21.9978 166.993 22.1872C166.923 22.2216 166.819 22.2842 166.811 22.3421C166.722 23.126 166.442 23.9116 166.782 24.8066C167.736 23.8693 167.93 22.7223 168.215 21.6254H168.217ZM190.964 13.4227C189.905 13.5151 189.085 15.2348 189.111 16.5163C190.011 15.5916 190.942 14.781 190.964 13.4227ZM168.423 18.8745C167.627 19.5505 167.181 20.3611 167.033 21.3766C168.313 20.5973 168.715 20.0371 168.423 18.8745Z" fill="black"/>
<path d="M153.47 37.5285C154.003 37.0872 154.485 36.6381 155.018 36.2563C155.688 35.7775 156.339 35.9433 156.638 36.6991C156.857 37.2515 156.934 37.8602 157.087 38.5018C157.943 37.577 158.867 36.6866 159.652 35.6914C160.091 35.1328 160.235 34.3566 160.629 33.7526C161.136 32.9749 162.039 32.8889 162.55 33.5085C162.953 34.0014 163.232 34.5585 163.109 35.2298C163.026 35.682 162.953 36.1343 162.969 36.6585C163.262 36.3455 163.565 36.0404 163.847 35.7196C165.278 34.0953 166.681 32.4445 168.145 30.8484C168.872 30.055 169.617 30.2678 170.336 31.0534C170.862 31.6308 170.826 32.083 170.552 32.6698C170.512 32.7543 170.547 32.8732 170.547 32.9718C171.376 31.8561 172.202 30.7404 173.032 29.6278C173.192 29.4135 173.337 29.1631 173.551 29.016C173.748 28.8783 174.092 28.7328 174.254 28.8141C174.421 28.8971 174.536 29.2601 174.516 29.4839C174.454 30.1161 174.26 30.7388 174.213 31.3726C174.156 32.1221 174.2 32.8779 174.2 33.7339C174.462 33.1079 174.667 32.5493 174.925 32.0141C175.466 30.8953 176.04 29.7906 176.59 28.6749C176.722 28.4089 176.9 28.1648 177.195 28.3525C177.329 28.4386 177.401 28.7985 177.335 28.9738C176.938 30.0362 176.695 31.1144 176.749 32.2489C176.758 32.4554 176.788 32.662 176.82 32.9812C177.014 32.7746 177.108 32.6088 177.25 32.5415C177.423 32.4617 177.639 32.4648 177.836 32.4335C177.836 32.6244 177.92 32.881 177.825 32.9937C177.509 33.3677 177.285 33.9827 176.615 33.7839C175.973 33.593 176.06 32.9828 175.994 32.4914C175.964 32.2645 175.989 32.0314 175.892 31.7669C175.671 32.2708 175.452 32.7762 175.228 33.2785C175.039 33.6994 174.878 34.1407 174.631 34.5272C174.509 34.7165 174.196 34.9278 174.005 34.8996C173.806 34.8715 173.519 34.5742 173.502 34.3754C173.425 33.4788 173.411 32.5759 173.414 31.6746C173.414 31.2224 173.504 30.7701 173.553 30.3179C173.508 30.2897 173.463 30.2631 173.419 30.235C172.602 31.4806 171.791 32.7293 170.969 33.9717C169.913 35.5694 169.871 37.3767 169.784 39.1887C169.715 40.6205 169.573 42.0507 169.425 43.4763C169.381 43.8956 169.237 44.3322 168.703 44.4277C168.265 44.5059 167.77 44.1945 167.497 43.6719C167.006 42.7314 166.99 41.7362 167.324 40.7723C167.857 39.2341 168.484 37.7272 169.061 36.2031C169.199 35.8369 169.303 35.4567 169.329 35.0561C168.979 35.3816 168.654 35.7384 168.273 36.0232C167.623 36.5114 166.889 36.225 166.799 35.4301C166.728 34.8026 166.785 34.161 166.785 33.4303C166.443 33.8043 166.126 34.1282 165.836 34.474C164.548 36.0075 163.264 37.5441 161.99 39.0886C161.73 39.4031 161.582 39.8209 161.284 40.0885C161.018 40.3279 160.589 40.5908 160.287 40.5392C159.981 40.4875 159.555 40.0932 159.505 39.799C159.366 38.9728 159.393 38.1215 159.354 37.2578C158.848 37.7757 158.318 38.3516 157.752 38.893C156.867 39.7364 156.651 40.885 156.228 41.9428C155.981 42.5671 155.601 43.0866 155.023 43.4763C154.597 43.7626 154.162 43.8424 153.768 43.5404C153.35 43.2196 153.442 42.7361 153.705 42.3825C154.29 41.5954 154.896 40.8146 155.576 40.1073C156.329 39.3217 156.458 37.6208 155.647 36.6663C155.182 37.1389 154.635 37.5457 154.29 38.0777C153.566 39.1934 153.123 40.3952 153.152 41.78C153.196 43.9614 153.093 46.1458 153.071 48.3271C153.068 48.6761 152.939 48.9046 152.6 48.8999C152.222 48.8952 152.304 48.5619 152.309 48.3287C152.332 47.2099 152.381 46.0942 152.387 44.9753C152.39 44.3776 152.291 43.7783 152.309 43.1821C152.342 41.9756 152.439 40.7739 152.477 39.5674C152.509 38.6285 152.477 37.6881 152.498 36.7477C152.506 36.3956 152.545 36.0372 152.636 35.6977C152.674 35.56 152.877 35.4019 153.024 35.38C153.115 35.3675 153.325 35.5881 153.339 35.718C153.398 36.2469 153.398 36.7805 153.424 37.3125C153.428 37.3783 153.451 37.4409 153.469 37.5222L153.472 37.5269L153.47 37.5285ZM160.427 39.9038C161.403 39.4939 162.216 36.6851 162.318 34.8699C162.336 34.5554 162.172 33.9905 161.79 33.895C161.339 33.895 161.168 34.2815 161.046 34.5554C160.796 35.1218 160.657 35.7415 160.506 36.3455C160.347 36.9808 160.181 37.6192 160.107 38.2655C160.047 38.7928 160.027 39.353 160.427 39.9038ZM167.513 35.3659C167.57 35.3816 167.623 35.4943 167.682 35.5099C167.849 35.3863 168.039 35.283 168.181 35.1328C168.96 34.3128 169.436 33.3223 169.768 32.2708C169.833 32.0642 169.749 31.7857 169.663 31.5666C169.442 31.008 169.16 30.9626 168.768 31.4117C168.109 32.1691 167.723 33.0547 167.582 34.0327C167.515 34.5037 167.53 34.9841 167.507 35.4614L167.511 35.3644L167.513 35.3659ZM169.099 38.3625C169.048 38.3563 168.998 38.3484 168.947 38.3422C168.753 38.868 168.509 39.3859 168.374 39.9273C168.175 40.7285 168 41.5438 167.928 42.3637C167.887 42.8238 168.033 43.3229 168.572 43.6875C169.077 41.8786 168.999 40.112 169.099 38.3625ZM155.577 41.1432L154.275 42.8363C154.32 42.8676 154.364 42.8989 154.408 42.9302C155.164 42.5984 155.424 41.913 155.577 41.1432Z" fill="black"/>
<path d="M184.461 7.15263C185.424 5.98842 186.387 4.82421 187.418 3.57864C187.202 3.63966 187.083 3.70695 186.975 3.696C186.845 3.68348 186.667 3.63653 186.612 3.54577C186.554 3.45032 186.563 3.23751 186.636 3.15614C187.564 2.11868 188.352 0.940391 189.648 0.270659C189.805 0.189289 189.976 0.106355 190.147 0.0828831C190.606 0.0171617 190.97 0.280047 190.948 0.727579C190.847 2.87761 190.483 4.95879 189.126 6.74891C188.845 7.1182 188.497 7.37639 188.01 7.20427C187.539 7.0384 187.381 6.6472 187.414 6.17776C187.446 5.71928 187.484 5.26235 187.531 4.62392C186.879 5.42979 186.324 6.12925 185.752 6.81307C185.476 7.14167 185.176 7.44994 184.872 7.75507C184.59 8.03987 184.243 8.22764 183.849 8.02422C183.465 7.82549 183.482 7.44055 183.536 7.07908C183.684 6.06666 183.84 5.0558 184.007 3.9667C183.433 4.47526 182.878 4.96035 182.333 5.45482C182.041 5.71928 181.692 5.96338 181.504 6.29199C181.296 6.65659 181.236 7.10412 181.121 7.51566C181.097 7.60016 181.121 7.69405 181.105 7.78011C181.055 8.05239 181.063 8.41385 180.655 8.38099C180.215 8.34657 180.27 7.97258 180.297 7.68153C180.406 6.53453 180.533 5.3891 180.653 4.24367C180.661 4.16543 180.653 4.08406 180.653 3.88846C180.037 4.93062 179.491 5.87888 178.919 6.8162C178.64 7.27312 178.346 7.72378 178.01 8.14001C177.419 8.87077 176.352 8.74715 176.145 7.85053C175.969 7.08378 176.108 6.24505 176.134 5.43918C176.144 5.16221 176.24 4.88837 176.295 4.61453C176.245 4.57072 176.196 4.5269 176.144 4.48152C175.904 4.76944 175.707 5.11526 175.412 5.32808C175.168 5.5049 174.787 5.62382 174.505 5.57218C174.363 5.54558 174.289 5.0871 174.216 4.81482C174.178 4.66617 174.21 4.49873 174.21 4.26715C173.649 4.60201 173.118 4.9181 172.56 5.2514C173.248 6.64407 172.927 8.04926 172.686 9.44192C172.486 10.6014 171.761 11.4777 170.881 12.2132C170.144 12.8297 169.299 12.4886 169.103 11.5622C168.848 10.3495 169.124 9.16026 169.266 7.96632C169.322 7.49062 169.397 7.01649 169.419 6.54079C169.463 5.60348 170.646 4.58167 171.606 4.63957C171.854 4.65521 172.137 4.58636 172.356 4.469C172.88 4.19047 173.362 3.8337 173.888 3.55829C174.156 3.41746 174.483 3.38617 174.784 3.30636C174.862 3.59585 174.951 3.88534 175.015 4.17952C175.041 4.29531 175.009 4.42519 174.995 4.70685C175.496 4.21551 175.899 3.8024 176.325 3.4112C176.59 3.16553 176.853 2.74616 177.279 3.02157C177.663 3.27037 177.384 3.65375 177.313 3.99331C177.105 4.97913 176.926 5.96964 176.744 6.96016C176.721 7.09629 176.719 7.25903 176.776 7.38109C176.853 7.54696 176.966 7.73317 177.119 7.80828C177.187 7.8427 177.433 7.66275 177.517 7.53131C178.183 6.47664 178.837 5.41571 179.479 4.34539C179.808 3.79614 180.101 3.22499 180.418 2.66792C180.514 2.49736 180.604 2.30333 180.751 2.18597C180.915 2.05609 181.149 1.92778 181.339 1.94655C181.439 1.95594 181.586 2.28142 181.578 2.45981C181.548 3.13267 181.463 3.8024 181.398 4.4737C181.375 4.73032 181.348 4.98852 181.436 5.3093C182.412 4.34695 183.387 3.38304 184.365 2.42069C184.606 2.18284 184.778 1.7134 185.213 1.93091C185.682 2.16563 185.413 2.58499 185.287 2.91986C184.779 4.26871 184.374 5.63947 184.458 7.1495L184.461 7.15263ZM172.029 5.65981C170.796 6.20436 170.046 6.86314 170.018 8.09776C169.992 9.15713 169.849 10.2134 169.85 11.2727C169.85 11.8079 170.148 11.8893 170.538 11.5137C171.23 10.8487 171.828 10.121 171.958 9.12896C172.03 8.5672 172.161 8.00701 172.174 7.44368C172.186 6.87722 172.085 6.30764 172.027 5.66138L172.029 5.65981ZM190.182 0.973252C190.132 0.935696 190.08 0.898141 190.029 0.859021C189.449 1.33628 188.869 1.81355 188.204 2.3581C188.962 2.45824 189.087 2.62568 188.937 3.16553C188.894 3.31888 188.804 3.45815 188.765 3.6115C188.56 4.39546 188.355 5.17942 188.176 5.96964C188.141 6.12299 188.218 6.30138 188.261 6.58304C189.684 4.85081 190.018 2.93707 190.18 0.968557L190.182 0.973252Z" fill="black"/>
<path d="M136.975 24.0212C137.177 23.7035 137.448 23.4078 137.567 23.062C137.963 21.9259 138.292 20.768 138.675 19.6288C138.783 19.308 138.743 18.765 139.284 18.8339C139.824 18.9012 139.654 19.4097 139.664 19.7524C139.687 20.5943 139.672 21.4377 139.672 22.2796L139.875 22.3155C140.163 21.8352 140.452 21.3548 140.735 20.8728C141.133 20.1968 141.574 19.5427 141.914 18.8401C142.392 17.8574 142.789 16.8356 143.232 15.8373C143.397 15.4649 143.587 15.1018 143.782 14.7435C144.001 14.3429 144.299 14.0425 144.822 14.1536C145.322 14.2584 145.508 14.6778 145.506 15.0721C145.503 16.2895 145.535 17.5257 145.333 18.7196C145.166 19.6976 144.702 20.6303 144.332 21.5707C144.212 21.8758 143.999 22.1559 143.788 22.4157C143.519 22.749 143.098 22.9462 142.731 22.7318C142.431 22.5565 142.143 22.1857 142.072 21.8555C141.962 21.3485 142.042 20.804 141.954 20.2438C141.73 20.6537 141.522 21.0715 141.281 21.4721C140.904 22.098 140.474 22.6958 140.13 23.3389C139.976 23.6284 139.865 24.0149 139.919 24.3279C140.326 26.7408 140.791 29.1427 141.21 31.5541C141.383 32.5477 141.536 33.5508 141.62 34.5554C141.746 36.1077 140.671 36.8212 139.237 36.0967C137.424 35.1797 136.631 33.6196 136.554 31.6621C136.489 30.0112 136.951 28.473 137.564 26.9661C137.984 25.9318 138.516 24.935 138.866 23.8803C139.065 23.2857 138.997 22.605 139.047 21.9635C138.991 21.951 138.936 21.9369 138.879 21.9243C138.768 22.1966 138.672 22.4767 138.546 22.7427C138.308 23.2372 138.086 23.7442 137.791 24.2074C137.552 24.5829 137.139 24.8834 136.69 24.6956C136.368 24.561 136.094 24.2168 135.909 23.9038C135.744 23.6253 135.681 23.2654 135.66 22.9352C135.55 21.2718 135.386 19.5991 135.936 17.9732C136.258 17.0203 136.88 16.2614 137.66 15.6245C138.434 14.9923 139.32 15.2395 139.642 16.1753C139.733 16.4413 139.809 16.7214 139.835 16.9984C139.848 17.1455 139.728 17.4318 139.678 17.4318C139.487 17.424 139.226 17.3755 139.131 17.2456C139.006 17.0735 139.022 16.8106 138.969 16.5884C138.827 15.9985 138.529 15.9046 138.054 16.2958C137.093 17.0907 136.491 18.1125 136.415 19.3174C136.335 20.5833 136.433 21.8633 136.488 23.1339C136.5 23.4172 136.661 23.6926 136.754 23.9727C136.828 23.9914 136.901 24.0102 136.975 24.0274V24.0212ZM139.208 25.1525C139.175 25.1463 139.142 25.1416 139.107 25.1353C138.904 25.6407 138.693 26.1446 138.497 26.6532C137.837 28.3588 137.188 30.0644 137.345 31.9453C137.462 33.3364 138.058 34.4599 139.249 35.2392C139.522 35.4176 139.878 35.5146 140.207 35.5584C140.601 35.6116 140.873 35.4301 140.847 34.9794C140.817 34.485 140.85 33.9795 140.762 33.496C140.43 31.6855 140.05 29.8845 139.705 28.0771C139.52 27.1054 139.374 26.1274 139.208 25.1525ZM142.918 22.0589C144.234 21.3141 145.374 16.3818 144.548 14.8264C144.31 15.407 144.086 15.8983 143.908 16.4038C143.793 16.7308 143.818 17.122 143.653 17.4146C142.926 18.6993 142.765 20.0826 142.805 21.5097C142.81 21.6865 142.876 21.8602 142.917 22.0589H142.918Z" fill="black"/>
<path d="M165.168 9.55306C164.984 9.80968 164.862 9.97399 164.746 10.1414C163.693 11.6499 162.598 13.1302 161.603 14.6746C160.951 15.6886 159.852 15.4883 159.401 14.6371C159.222 14.2975 159.064 13.9454 158.887 13.5871C158.649 14.3617 158.435 15.13 158.17 15.8795C158.038 16.2566 157.874 16.7214 157.354 16.6807C156.787 16.6353 156.731 16.1127 156.7 15.7058C156.552 13.7405 156.689 11.8048 157.576 9.98807C157.959 9.20567 158.26 9.0179 158.824 9.12743C159.321 9.22445 159.934 9.92861 159.953 10.4951C159.967 10.8988 159.895 11.3072 159.866 11.7125C159.811 12.5027 159.542 13.3023 159.959 14.0738C160.33 14.756 160.58 14.7685 161.014 14.141C161.958 12.775 162.932 11.4292 163.852 10.0491C164.363 9.28391 164.79 8.46553 165.255 7.67217C165.197 7.62367 165.137 7.57359 165.078 7.52508C164.683 7.85995 164.293 8.20108 163.892 8.52655C163.756 8.63765 163.565 8.81291 163.444 8.78474C163.244 8.73624 163.02 8.57819 162.921 8.40293C162.87 8.31061 163.02 8.02738 163.155 7.93193C163.888 7.41085 164.654 6.93516 165.392 6.41877C165.907 6.05731 166.388 5.64576 166.899 5.27804C167.127 5.11217 167.386 4.92596 167.652 4.89153C167.819 4.86963 168.056 4.89153 168.21 5.23109C168.119 5.41418 167.98 5.64576 167.803 5.77095C167.275 6.14337 166.714 6.47041 166.172 6.82406C166.131 6.85066 166.125 6.94454 166.122 7.0087C166.049 8.27932 165.972 9.54993 165.915 10.8221C165.896 11.2618 165.923 11.7031 165.94 12.1412C165.955 12.4558 165.969 12.8016 165.562 12.8485C165.148 12.897 165.11 12.5215 165.107 12.257C165.097 11.5842 165.145 10.9097 165.165 10.2353C165.171 10.046 165.165 9.85819 165.165 9.55149L165.168 9.55462V9.55306ZM157.422 15.3757L157.554 15.4007C157.858 14.3006 158.178 13.2037 158.46 12.099C158.56 11.7093 158.659 11.3792 159.141 11.4011C159.27 10.4137 159.198 10.2165 158.55 9.85976C157.477 11.5701 157.403 13.465 157.422 15.3757Z" fill="black"/>
<path d="M190.264 26.2901C189.815 26.9394 189.331 27.5685 188.926 28.2414C188.412 29.0957 187.961 29.9877 187.484 30.8624C187.346 31.1143 187.208 31.4539 186.852 31.2677C186.478 31.0721 186.68 30.7435 186.82 30.4759C187.063 30.0096 187.318 29.548 187.64 28.9502C186.738 29.5198 185.977 30.008 185.208 30.4884C184.229 31.0987 183.753 30.8577 183.381 29.803C183.197 29.2819 183.39 29.0253 183.625 28.6529C183.996 28.0692 184.212 27.376 184.645 26.8487C185.206 26.1649 185.901 25.5796 186.573 24.9881C186.844 24.7503 187.222 24.6063 187.564 24.8958C187.907 25.1869 187.785 25.553 187.614 25.8738C186.905 27.207 185.923 28.3071 184.606 29.0942C184.207 29.3336 184.125 29.6215 184.303 30.0878C184.481 30.0049 184.626 29.9501 184.755 29.8734C186.525 28.836 188.161 27.6405 189.48 26.0632C189.802 25.6798 190.177 25.3355 190.56 25.0116C190.713 24.8833 190.959 24.8583 191.162 24.7863C191.213 24.9913 191.318 25.201 191.302 25.3997C191.192 26.7955 191.045 28.1897 190.938 29.5855C190.913 29.9173 191.027 30.2584 191.009 30.5917C191 30.7435 190.825 30.8843 190.726 31.0314C190.574 30.9172 190.295 30.8076 190.292 30.6903C190.268 29.7921 190.287 28.8923 190.316 27.9941C190.333 27.4543 190.398 26.9144 190.442 26.3746C190.384 26.3464 190.324 26.3167 190.265 26.2885L190.264 26.2901ZM186.724 26.0272C186.659 25.9677 186.593 25.9067 186.528 25.8472C185.958 26.506 185.387 27.1663 184.815 27.8251L185.001 27.9816C185.576 27.3306 186.149 26.6797 186.724 26.0287V26.0272Z" fill="black"/>
<path d="M152.491 15.3866C151.625 16.6744 150.748 18.0092 149.826 19.3158C149.554 19.7007 149.193 20.0559 148.799 20.3219C148.086 20.8008 147.273 20.577 146.862 19.8337C146.726 19.5896 146.619 19.308 146.586 19.0341C146.431 17.7087 146.341 16.3771 146.876 15.1034C147.227 14.2646 147.71 14.0502 148.633 14.2865C148.698 14.202 148.751 14.069 148.847 14.0236C148.98 13.9626 149.166 13.9172 149.293 13.9611C149.383 13.9923 149.467 14.1879 149.459 14.3069C149.423 14.889 149.377 15.4758 149.286 16.0516C149.262 16.2018 149.057 16.3255 148.936 16.46C148.802 16.3161 148.62 16.1924 148.545 16.0235C148.471 15.8529 148.539 15.6276 148.475 15.4476C148.412 15.2708 148.282 15.0173 148.146 14.9922C148.001 14.9656 147.711 15.1409 147.665 15.2833C147.481 15.8529 147.275 16.4397 147.252 17.028C147.223 17.7604 147.297 18.5146 147.454 19.2328C147.596 19.8822 148.063 19.9777 148.592 19.5521C148.786 19.3956 148.974 19.2156 149.117 19.0122C150.302 17.3394 151.55 15.7027 152.2 13.7295C152.293 13.4447 152.4 13.1536 152.562 12.9032C152.662 12.7499 152.936 12.5449 153.035 12.5872C153.205 12.6591 153.406 12.9017 153.406 13.0738C153.409 13.6919 153.319 14.31 153.287 14.9281C153.249 15.6901 153.257 16.4538 153.194 17.2127C153.177 17.4083 153.089 17.6681 152.841 17.7713C152.641 17.7306 152.54 17.4834 152.416 17.3207C152.039 16.8309 152.427 16.3474 152.449 15.8607C152.457 15.6761 152.485 15.493 152.496 15.385H152.493L152.491 15.3866Z" fill="black"/>
<path d="M197.542 30.9516C196.886 31.0878 196.777 31.0048 196.864 30.3946C197.044 29.1334 197.228 27.8721 197.425 26.4982C196.934 27.1586 196.495 27.7469 196.057 28.3384C195.643 28.8971 195.246 29.4713 194.811 30.0143C194.558 30.3289 194.279 30.7279 193.786 30.5448C193.286 30.3586 193.247 29.8751 193.337 29.4573C193.619 28.146 193.928 26.8409 194.279 25.5468C194.407 25.0743 194.678 24.6393 194.886 24.1886C195.023 23.8929 195.268 23.68 195.556 23.9069C195.676 24.0024 195.671 24.4045 195.57 24.5861C194.708 26.1289 194.346 27.8048 194.19 29.5699C194.383 29.3258 194.58 29.0848 194.768 28.8376C195.941 27.2822 197.104 25.719 198.291 24.1761C198.401 24.0337 198.669 24.0055 198.866 23.9257C198.908 24.1401 199.06 24.4171 198.976 24.5642C198.292 25.7565 198.158 27.085 197.925 28.3869C197.772 29.2382 197.67 30.0973 197.543 30.9563V30.9532L197.542 30.9516Z" fill="black"/>
<path d="M151.547 29.5011C151.204 30.6262 150.882 31.637 150.589 32.6573C150.507 32.9421 150.412 33.2269 150.078 33.1032C149.935 33.05 149.787 32.6807 149.837 32.5102C150.208 31.2536 150.613 30.0081 151.041 28.7719C151.161 28.4308 151.216 28.1303 151 27.8252C150.392 26.9677 149.837 26.0601 149.134 25.2824C148.873 24.9929 148.532 24.8036 148.553 24.3811C148.562 24.198 148.609 23.9836 148.772 23.8443C148.994 23.7332 149.23 23.9664 149.339 24.1104C150.048 25.0524 150.723 26.0178 151.405 26.9771C151.446 27.035 151.454 27.1132 151.478 27.1836C151.527 27.1586 151.576 27.132 151.624 27.1069C152.069 25.6392 152.518 24.1745 152.955 22.7036C153.041 22.4126 153.078 22.0151 153.494 22.1778C153.648 22.2389 153.771 22.702 153.706 22.9242C153.234 24.5344 152.729 26.1399 152.189 27.7313C152.017 28.2352 152.13 28.6686 152.301 29.1161C152.452 29.5136 152.644 29.897 152.769 30.3007C152.821 30.4713 153.002 30.6935 152.725 30.8703C152.447 31.0471 152.236 30.7952 152.137 30.6575C151.911 30.3461 151.779 29.9705 151.549 29.4995L151.547 29.5011Z" fill="black"/>
<path d="M149.683 12.7201C149.837 12.4369 149.91 12.1787 150.077 12.0176C151.501 10.6499 153.125 9.58586 155.044 8.99124C155.182 8.94899 155.338 8.89735 155.468 8.92552C155.621 8.95994 155.839 8.92552 155.894 9.15554C155.894 9.35114 155.744 9.52483 155.606 9.59838C155.358 9.72982 155.055 9.75799 154.788 9.86127C153.442 10.3745 152.256 11.1507 151.152 12.041C150.903 12.2429 150.758 12.5652 150.542 12.8109C150.415 12.9517 150.23 13.1614 150.096 13.1442C149.949 13.1254 149.832 12.8829 149.684 12.7186L149.683 12.7201Z" fill="black"/>
<path d="M179.687 32.1001C179.852 31.022 180.018 29.9751 180.167 28.9252C180.238 28.4354 180.237 27.9315 180.352 27.4543C180.399 27.2587 180.667 26.9707 180.831 26.9723C181.201 26.9754 181.154 27.3134 181.119 27.5826C180.906 29.2115 180.7 30.8389 180.473 32.4647C180.456 32.5899 180.287 32.8012 180.216 32.7918C180.047 32.7699 179.849 32.6697 179.746 32.5383C179.663 32.4303 179.702 32.2331 179.688 32.1033L179.687 32.1001Z" fill="black"/>
<path d="M182.944 25.4091C183.023 25.4763 183.277 25.6109 183.261 25.7017C183.233 25.8722 183.077 26.1101 182.924 26.1539C181.94 26.445 180.941 26.6875 179.948 26.9551C179.635 27.0396 179.256 26.977 179.069 27.3713C179.036 27.4433 178.714 27.4636 178.593 27.3948C178.424 27.3009 178.259 27.1162 178.208 26.9379C178.18 26.8346 178.353 26.5873 178.482 26.5467C178.943 26.398 179.426 26.3166 179.898 26.1946C180.787 25.963 181.672 25.7189 182.56 25.4826C182.646 25.4591 182.738 25.4482 182.944 25.4091Z" fill="black"/>
<path d="M122.473 0H121.843V49H122.473V0Z" fill="#404040"/>
</g>
<defs>
<clipPath id="clip0_395_215">
<rect width="199" height="49" fill="white"/>
</clipPath>
</defs>
</svg>
