<svg width="200" height="58" viewBox="0 0 200 58" fill="none" xmlns="http://www.w3.org/2000/svg">
<path d="M171.014 0.421631H28.8453C12.9145 0.421631 0 13.2429 0 29.0588C0 44.8747 12.9145 57.696 28.8453 57.696H171.014C186.945 57.696 199.859 44.8747 199.859 29.0588C199.859 13.2429 186.945 0.421631 171.014 0.421631Z" fill="#FF335F"/>
<path d="M43.878 30.1136C43.7157 22.7575 37.6602 16.8462 30.2134 16.8462C22.7666 16.8462 16.543 22.9216 16.543 30.4187H22.01C22.01 36.4135 26.9059 41.2744 32.9469 41.2744C38.9879 41.2744 43.7186 36.5775 43.878 30.7209C43.8809 30.6201 43.8838 30.5194 43.8838 30.4187C43.8838 30.3179 43.8838 30.2143 43.878 30.1165V30.1136ZM32.9469 35.8465C29.9264 35.8465 27.4799 33.4146 27.4799 30.4187C27.4799 27.4227 29.9293 24.9908 32.9469 24.9908C35.9645 24.9908 38.4139 27.4227 38.4139 30.4187C38.4139 33.4146 35.9645 35.8465 32.9469 35.8465ZM121.697 21.9085C116.935 21.9085 113.059 25.7247 113.059 30.4187C113.059 35.1126 116.854 38.9288 121.697 38.9288C126.541 38.9288 130.336 35.1903 130.336 30.4187C130.336 25.647 126.46 21.9085 121.697 21.9085ZM121.697 35.3573C119.149 35.3573 117.3 33.1009 117.3 30.4158C117.3 27.7307 119.149 25.4743 121.697 25.4743C124.245 25.4743 126.06 27.7738 126.06 30.4158C126.06 33.0578 124.225 35.3573 121.697 35.3573ZM83.7385 22.2712L83.7182 24.162C83.7182 24.162 83.5211 23.9289 83.3617 23.7389C82.5471 22.769 80.9876 21.9028 78.686 21.9028C74.4423 21.9028 70.9899 25.719 70.9899 30.4129C70.9899 30.4129 70.9899 30.4129 70.9899 30.4158C70.9899 30.4187 70.9899 30.4158 70.9899 30.4187C70.9899 35.1098 74.4423 38.9288 78.686 38.9288C80.9876 38.9288 82.5471 38.0626 83.3617 37.0927C83.524 36.8999 83.7182 36.6696 83.7182 36.6696L83.7385 38.5604H87.9272V22.2683H83.7385V22.2712ZM83.9878 30.4187C83.9878 33.2045 82.266 35.3601 79.6571 35.3601C77.0482 35.3601 75.2278 33.2045 75.2278 30.4187C75.2278 30.4187 75.2278 30.4187 75.2278 30.4158C75.2278 30.4129 75.2278 30.4158 75.2278 30.4129C75.2278 27.6271 77.0482 25.4715 79.6571 25.4715C82.266 25.4715 83.9878 27.6271 83.9878 30.4129C83.9878 30.4129 83.9878 30.4129 83.9878 30.4158C83.9878 30.4187 83.9878 30.4158 83.9878 30.4187ZM162.158 22.2712L162.138 24.162C162.138 24.162 161.941 23.9289 161.781 23.7389C160.967 22.769 159.407 21.9028 157.105 21.9028C152.862 21.9028 149.409 25.719 149.409 30.4129C149.409 30.4129 149.409 30.4129 149.409 30.4158C149.409 30.4187 149.409 30.4158 149.409 30.4187C149.409 35.1098 152.862 38.9288 157.105 38.9288C159.407 38.9288 160.967 38.0626 161.781 37.0927C161.943 36.8999 162.138 36.6696 162.138 36.6696L162.158 38.5604H166.347V22.2683H162.158V22.2712ZM162.407 30.4187C162.407 33.2045 160.685 35.3601 158.077 35.3601C155.468 35.3601 153.647 33.2045 153.647 30.4187C153.647 30.4187 153.647 30.4187 153.647 30.4158C153.647 30.4129 153.647 30.4158 153.647 30.4129C153.647 27.6271 155.468 25.4715 158.077 25.4715C160.685 25.4715 162.407 27.6271 162.407 30.4129C162.407 30.4129 162.407 30.4129 162.407 30.4158C162.407 30.4187 162.407 30.4158 162.407 30.4187ZM60.7226 25.4743C58.134 25.4743 56.3252 27.6098 56.3252 30.4158C56.3252 33.2218 58.134 35.3573 60.7226 35.3573C62.5488 35.3573 63.9141 34.2838 64.6823 32.58H68.9289C67.8911 36.5603 64.8417 38.9259 60.7226 38.9259C55.7976 38.9259 52.0843 35.268 52.0843 30.4158C52.0843 25.5635 55.7976 21.9057 60.7226 21.9057C64.8417 21.9057 67.8911 24.2713 68.9289 28.2516H64.6823C63.9141 26.5478 62.5488 25.4743 60.7226 25.4743ZM100.882 29.4229L106.52 22.2712H110.123V38.5547H105.914V28.548L100.914 34.94L95.8784 28.5538V38.5576H91.6695V22.274H95.2726L100.879 29.4258L100.882 29.4229ZM141.548 30.2892L149.482 38.5576H144.116L137.452 31.5209V38.5576H133.243V22.274H137.452V29.4258L143.421 22.274H148.377L141.551 30.2892H141.548ZM174.159 25.7765H169.208V22.2712H183.319V25.7765H178.368V38.5547H174.159V25.7765Z" fill="white"/>
</svg>
